<svg xmlns="http://www.w3.org/2000/svg" width="256" height="256" viewBox="0 0 100 100"><rect width="100" height="100" rx="20" fill="#000000"></rect><path fill="#fff" d="M75.25 50L75.25 50Q75.25 54.35 74.13 58.37Q73.01 62.39 70.94 65.89Q68.87 69.38 66.02 72.26Q63.16 75.14 59.65 77.20Q56.13 79.27 52.11 80.39Q48.09 81.51 43.74 81.51L43.74 81.51L24.75 81.51L24.75 18.49L43.74 18.49Q48.09 18.49 52.11 19.61Q56.13 20.73 59.65 22.80Q63.16 24.86 66.02 27.74Q68.87 30.62 70.94 34.11Q73.01 37.61 74.13 41.63Q75.25 45.65 75.25 50ZM62.63 50L62.63 50Q62.63 46.09 61.16 42.66Q59.69 39.23 57.12 36.66Q54.55 34.09 51.10 32.60Q47.65 31.10 43.74 31.10L43.74 31.10L37.45 31.10L37.45 68.90L43.74 68.90Q47.65 68.90 51.10 67.42Q54.55 65.95 57.12 63.38Q59.69 60.81 61.16 57.36Q62.63 53.91 62.63 50Z"></path></svg>